<svg width="13" height="13" viewBox="0 0 13 13" fill="none" xmlns="http://www.w3.org/2000/svg">
<path d="M12.1543 2.13398C12.51 1.77823 12.51 1.20146 12.1543 0.845724C11.7985 0.489983 11.2218 0.489983 10.866 0.845724L6.50003 5.21172L2.13404 0.845724C1.7783 0.489983 1.20153 0.489983 0.845786 0.845724C0.490045 1.20146 0.490045 1.77823 0.845786 2.13398L5.21178 6.49997L0.845785 10.866C0.490044 11.2217 0.490044 11.7985 0.845785 12.1542C1.20153 12.51 1.7783 12.51 2.13404 12.1542L6.50003 7.78822L10.866 12.1542C11.2218 12.51 11.7985 12.51 12.1543 12.1542C12.51 11.7985 12.51 11.2217 12.1543 10.866L7.78828 6.49997L12.1543 2.13398Z" fill="white"/>
</svg>
