<svg width="50" height="50" viewBox="0 0 50 50" fill="none" xmlns="http://www.w3.org/2000/svg">
<path fill-rule="evenodd" clip-rule="evenodd" d="M39.1667 13.9344C41.2378 13.9344 42.9167 12.283 42.9167 10.2459C42.9167 8.20878 41.2378 6.55737 39.1667 6.55737C37.0957 6.55737 35.4167 8.20878 35.4167 10.2459C35.4167 12.283 37.0957 13.9344 39.1667 13.9344Z" fill="#7F265B"/>
<path fill-rule="evenodd" clip-rule="evenodd" d="M11.25 13.9344C13.3211 13.9344 15 12.283 15 10.2459C15 8.20878 13.3211 6.55737 11.25 6.55737C9.17893 6.55737 7.5 8.20878 7.5 10.2459C7.5 12.283 9.17893 13.9344 11.25 13.9344Z" fill="#7F265B"/>
<path fill-rule="evenodd" clip-rule="evenodd" d="M11.25 43.4426C13.3211 43.4426 15 41.7912 15 39.7541C15 37.717 13.3211 36.0656 11.25 36.0656C9.17893 36.0656 7.5 37.717 7.5 39.7541C7.5 41.7912 9.17893 43.4426 11.25 43.4426Z" fill="#7F265B"/>
<path fill-rule="evenodd" clip-rule="evenodd" d="M39.1667 43.4426C41.2378 43.4426 42.9167 41.7912 42.9167 39.7541C42.9167 37.717 41.2378 36.0656 39.1667 36.0656C37.0957 36.0656 35.4167 37.717 35.4167 39.7541C35.4167 41.7912 37.0957 43.4426 39.1667 43.4426Z" fill="#7F265B"/>
<rect y="22.541" width="50" height="4.91803" rx="2.45902" fill="#555555"/>
<rect x="27.5" y="29.5082" width="20.4918" height="5" rx="2.5" transform="rotate(90 27.5 29.5082)" fill="#555555"/>
<rect x="27.5" width="20.4918" height="5" rx="2.5" transform="rotate(90 27.5 0)" fill="#555555"/>
</svg>
