<svg width="25" height="25" viewBox="0 0 25 25" fill="none" xmlns="http://www.w3.org/2000/svg">
<path fill-rule="evenodd" clip-rule="evenodd" d="M18.7967 20.1428C16.8068 21.8272 14.2328 22.8429 11.4215 22.8429C5.11356 22.8429 0 17.7294 0 11.4215C0 5.11357 5.11356 0 11.4215 0C17.7294 0 22.8429 5.11357 22.8429 11.4215C22.8429 14.2328 21.8272 16.8068 20.1428 18.7967L24.7212 23.3752C25.0929 23.7469 25.0929 24.3495 24.7212 24.7212C24.3495 25.0929 23.7469 25.0929 23.3752 24.7212L18.7967 20.1428ZM20.9393 11.4215C20.9393 16.6781 16.678 20.9394 11.4215 20.9394C6.16488 20.9394 1.90358 16.6781 1.90358 11.4215C1.90358 6.16488 6.16488 1.90358 11.4215 1.90358C16.678 1.90358 20.9393 6.16488 20.9393 11.4215Z" fill="#687684"/>
</svg>
